<svg width="88" height="88" viewBox="0 0 88 88" fill="none" xmlns="http://www.w3.org/2000/svg">
<path d="M33.3232 31.6592L2.63086 51.8858C2.63086 51.8858 3.94624 58.4815 7.45394 64.6374C11.879 72.4034 16.2232 75.1905 16.2232 75.1905L26.7462 56.7227L35.5155 62.4389L33.3232 31.6592Z" fill="#10413E" stroke="#10413E" stroke-miterlimit="4.13357" stroke-linecap="round"/>
<path d="M55.6847 30.8078C62.5611 41.7602 53.4813 48.6299 49.0045 51.1845M2.67742 47.8388C2.56001 46.5654 2.5 45.2752 2.5 43.971C2.5 21.0605 21.018 2.49999 43.8462 2.49999C66.6743 2.49999 85.1923 21.0605 85.1923 43.971C85.1923 59.2455 76.9612 72.5864 64.7095 79.7826L50.208 53.3761C50.3646 53.287 50.5262 53.1932 50.6923 53.0946C52.3454 52.1126 54.5098 50.6109 56.3981 48.5728C58.288 46.533 59.9967 43.8503 60.5151 40.5312C61.041 37.1636 60.2933 33.4465 57.8019 29.4784C55.6228 26.0077 52.8097 24.0569 49.7566 23.2456C46.7774 22.454 43.7902 22.8037 41.2585 23.5073C38.7167 24.2136 36.4768 25.3201 34.8948 26.2278C34.0971 26.6854 33.4504 27.1019 32.9974 27.4083C32.7706 27.5616 32.5914 27.688 32.4651 27.779C32.4019 27.8244 32.3519 27.8611 32.3158 27.8879L32.315 27.8884L2.67742 47.8388ZM3.54594 53.2815L32.9422 33.4936L44.5953 53.5429L60.2501 82.0497C55.2206 84.2324 49.6738 85.442 43.8462 85.442C24.2078 85.442 7.75929 71.7061 3.54594 53.2815ZM48.1388 48.7957C48.0057 48.8748 47.8761 48.9501 47.7506 49.0216L37.1139 30.7211C37.2011 30.6698 37.2908 30.6176 37.383 30.5647C38.7468 29.7822 40.5901 28.8825 42.5973 28.3247C44.6147 27.7641 46.6424 27.5916 48.4726 28.0779C50.2288 28.5446 52.0195 29.6718 53.5674 32.1371C55.524 35.2535 55.8862 37.7668 55.5749 39.7597C55.2561 41.8012 54.1807 43.6092 52.7304 45.1746C51.2786 46.7415 49.5469 47.9594 48.1388 48.7957Z" stroke="#10413E" stroke-width="5"/>
</svg>
